<svg width="81" height="94" viewBox="0 0 81 94" xmlns="http://www.w3.org/2000/svg"><path d="M-.014 18.043c0 2.051 1.185 4.17 3.555 6.357l9.707.82c1.094.091 2.051.672 2.871 1.743.82 1.071 1.23 2.153 1.23 3.247 0 1.914-.718 4.124-2.153 6.631-1.436 2.507-2.153 5.013-2.153 7.52 0 2.324.273 5.765.82 10.322.547 4.557.82 7.998.82 10.322 0 1.23.08 3.053.239 5.469.16 2.415.239 4.238.239 5.469 0 .82-.068 2.074-.205 3.76-.137 1.686-.205 2.939-.205 3.76 0 1.413-.547 2.313-1.641 2.7-1.094.387-1.641.946-1.641 1.675 0 .228.046.615.137 1.162h7.52c-2.279.911-3.418 1.891-3.418 2.939 0 1.23 1.458 1.846 4.375 1.846 2.096 0 3.486-.661 4.17-1.982.456-.911.684-2.529.684-4.854 0-1.322-.023-3.293-.068-5.913-.046-2.62-.068-4.591-.068-5.913 0-8.522 1.458-15.745 4.375-21.67.091.182.137.479.137.889 0 1.185-.456 2.803-1.367 4.854-.957 2.188-1.481 3.783-1.572 4.785-.866 8.158-1.299 12.874-1.299 14.15 0 1.139.216 2.746.649 4.819.433 2.074.649 3.338.649 3.794 0 .137-.194.513-.581 1.128-.387.615-.581 1.242-.581 1.88 0 2.279 3.418 3.418 10.254 3.418 2.917 0 4.831-.41 5.742-1.23 5.378 0 9.98-2.712 13.809-8.135 4.694-.866 8.59-2.62 11.689-5.264 3.464-3.008 5.195-6.585 5.195-10.732 0-2.552-.775-5.742-2.324-9.57-1.549-3.828-2.324-6.54-2.324-8.135 0-5.423 3.031-9.137 9.092-11.143 2.78-.911 4.17-1.755 4.17-2.529 0-1.276-.706-1.914-2.119-1.914-4.238 0-7.895 1.606-10.972 4.819-3.076 3.213-4.614 6.961-4.614 11.245 0 2.552.775 5.628 2.324 9.229 1.549 3.6 2.324 6.175 2.324 7.725 0 3.236-1.162 5.879-3.486 7.93-2.142 1.914-4.899 3.031-8.271 3.35 0-11.895-3.851-24.017-11.553-36.367-1.641-2.689-4.352-6.209-8.135-10.562-3.783-4.352-6.426-7.736-7.93-10.151-1.595-2.689-3.167-5.4-4.717-8.135-2.188-3.509-4.215-5.719-6.084-6.631.091-.501.137-.98.137-1.436 0-1.003-.661-2.552-1.982-4.648-.866.638-1.663 1.755-2.393 3.35-.592-1.504-1.868-2.712-3.828-3.623-.684 1.322-1.025 2.415-1.025 3.281 0 .592.137 1.23.41 1.914-1.96.319-3.304 1.344-4.033 3.076-1.276 2.917-2.051 4.535-2.324 4.854-1.504 1.823-2.256 3.258-2.256 4.307zm4.512-5.605c.866-.684 1.641-1.025 2.324-1.025.638 0 1.344.57 2.119 1.709-.729.638-1.436.957-2.119.957-.729 0-1.504-.547-2.324-1.641zm-4.033 5.469l1.436.068-.82 1.641-.615-1.709zm16.27 8.477c1.458-.957 2.917-1.937 4.375-2.939 2.005-1.595 3.35-3.304 4.033-5.127l1.914 3.623c-.911 1.413-3.919 4.056-9.023 7.93l-1.299-3.486zm-1.777 22.08c0-2.826.046-4.945.137-6.357.319 3.327.957 8.271 1.914 14.834-1.367-3.737-2.051-6.562-2.051-8.477zm-9.297-35.684c0 .684.319 1.025.957 1.025.684 0 1.025-.342 1.025-1.025 0-.638-.342-.957-1.025-.957-.638 0-.957.319-.957.957z" fill="#271F0E"/></svg>
